<?xml version="1.0" standalone="no"?><svg xmlns="http://www.w3.org/2000/svg" viewBox="0 0 1440 320"><path fill="#3157af" fill-opacity="1" d="M0,32L34.3,69.3C68.6,107,137,181,206,224C274.3,267,343,277,411,272C480,267,549,245,617,213.3C685.7,181,754,139,823,106.7C891.4,75,960,53,1029,85.3C1097.1,117,1166,203,1234,202.7C1302.9,203,1371,117,1406,74.7L1440,32L1440,320L1405.7,320C1371.4,320,1303,320,1234,320C1165.7,320,1097,320,1029,320C960,320,891,320,823,320C754.3,320,686,320,617,320C548.6,320,480,320,411,320C342.9,320,274,320,206,320C137.1,320,69,320,34,320L0,320Z"></path></svg>